<?xml version="1.0" encoding="UTF-8"?>
<svg width="700px" height="710px" viewBox="0 0 700 710" version="1.1" xmlns="http://www.w3.org/2000/svg" xmlns:xlink="http://www.w3.org/1999/xlink">
    <!-- Generator: Sketch 58 (84663) - https://sketch.com -->
    <title>innerMenuSprite</title>
    <desc>Created with Sketch.</desc>
    <g id="innerMenuSprite" stroke="none" stroke-width="1" fill="none" fill-rule="evenodd" fill-opacity="0">
        <path d="M-197,297 L-197,207.160428 L-158.56639,207.160428 C-156.089545,207.160428 -153.933014,208.058815 -152.096732,209.855615 C-150.260451,211.652415 -149.342324,213.834212 -149.342324,216.40107 L-149.342324,243.994652 C-149.342324,246.56151 -150.260451,248.743307 -152.096732,250.540107 C-153.933014,252.336907 -156.089545,253.235294 -158.56639,253.235294 L-185.085581,253.235294 L-185.085581,297 L-197,297 Z M-185.085581,241.299465 L-165.868776,241.299465 C-164.587649,241.299465 -163.498708,240.850272 -162.601919,239.951872 C-161.70513,239.053471 -161.256743,237.962573 -161.256743,236.679144 L-161.256743,223.588235 C-161.256743,222.390368 -161.70513,221.34225 -162.601919,220.44385 C-163.498708,219.54545 -164.587649,219.096257 -165.868776,219.096257 L-185.085581,219.096257 L-185.085581,241.299465 Z M-130.766079,297 C-133.328332,297 -135.527567,296.080223 -137.363849,294.240642 C-139.20013,292.40106 -140.118257,290.197874 -140.118257,287.631016 L-140.118257,242.069519 C-140.118257,239.502661 -139.20013,237.320865 -137.363849,235.524064 C-135.527567,233.727264 -133.328332,232.828877 -130.766079,232.828877 L-113.342842,232.828877 C-110.69518,232.828877 -108.474594,233.727264 -106.681017,235.524064 C-104.887439,237.320865 -103.990664,239.502661 -103.990664,242.069519 L-103.990664,261.57754 C-103.990664,264.144398 -104.887439,266.347584 -106.681017,268.187166 C-108.474594,270.026747 -110.69518,270.946524 -113.342842,270.946524 L-128.075726,270.946524 L-128.075726,280.315508 C-128.075726,281.598937 -127.627339,282.689835 -126.73055,283.588235 C-125.833761,284.486636 -124.702116,284.935829 -123.335581,284.935829 L-106.681017,284.935829 L-103.990664,297 L-130.766079,297 Z M-128.075726,258.882353 L-120.645228,258.882353 C-119.364101,258.882353 -118.27516,258.43316 -117.378371,257.534759 C-116.481583,256.636359 -116.033195,255.545461 -116.033195,254.262032 L-116.033195,249.513369 C-116.033195,248.22994 -116.481583,247.139042 -117.378371,246.240642 C-118.27516,245.342241 -119.364101,244.893048 -120.645228,244.893048 L-123.335581,244.893048 C-124.702116,244.893048 -125.833761,245.342241 -126.73055,246.240642 C-127.627339,247.139042 -128.075726,248.22994 -128.075726,249.513369 L-128.075726,258.882353 Z M-97.5850622,297 L-97.5850622,232.828877 L-70.8096473,232.828877 C-68.2473938,232.828877 -66.0481593,233.748654 -64.2118776,235.588235 C-62.3755959,237.427817 -61.4574689,239.631003 -61.4574689,242.197861 L-61.4574689,256.187166 L-73.5,253.491979 L-73.5,249.641711 C-73.5,248.358282 -73.9483876,247.245994 -74.8451763,246.304813 C-75.7419651,245.363632 -76.8309065,244.893048 -78.1120332,244.893048 L-85.5425311,244.893048 L-85.5425311,297 L-97.5850622,297 Z M-53.7707469,297 L-53.7707469,210.240642 C-53.7707469,207.673784 -52.8739716,205.491988 -51.0803942,203.695187 C-49.2868168,201.898387 -47.1516376,201 -44.6747925,201 L-27.123444,201 C-24.5611905,201 -22.3833077,201.898387 -20.5897303,203.695187 C-18.7961529,205.491988 -17.8993776,207.673784 -17.8993776,210.240642 L-17.8993776,224.101604 L-29.8137967,221.534759 L-29.8137967,217.55615 C-29.8137967,216.358283 -30.2621843,215.310165 -31.158973,214.411765 C-32.0557617,213.513364 -33.1447031,213.064171 -34.4258299,213.064171 L-37.2442946,213.064171 C-38.5254213,213.064171 -39.6143627,213.513364 -40.5111515,214.411765 C-41.4079402,215.310165 -41.8563278,216.358283 -41.8563278,217.55615 L-41.8563278,232.957219 L-26.7391079,232.957219 L-29.4294606,245.02139 L-41.8563278,245.02139 L-41.8563278,297 L-53.7707469,297 Z M-12.6467842,297 C-15.2944462,297 -17.5150325,296.080223 -19.30861,294.240642 C-21.1021874,292.40106 -21.9989627,290.197874 -21.9989627,287.631016 L-21.9989627,242.197861 C-21.9989627,239.631003 -21.1021874,237.427817 -19.30861,235.588235 C-17.5150325,233.748654 -15.2944462,232.828877 -12.6467842,232.828877 L4.77645228,232.828877 C7.33870576,232.828877 9.51658854,233.748654 11.310166,235.588235 C13.1037434,237.427817 14.0005187,239.631003 14.0005187,242.197861 L14.0005187,287.631016 C14.0005187,290.197874 13.1037434,292.40106 11.310166,294.240642 C9.51658854,296.080223 7.33870576,297 4.77645228,297 L-12.6467842,297 Z M-5.34439834,284.935829 L-2.65404564,284.935829 C-1.37291891,284.935829 -0.262625721,284.486636 0.67686722,283.588235 C1.61636016,282.689835 2.08609959,281.598937 2.08609959,280.315508 L2.08609959,249.513369 C2.08609959,248.22994 1.61636016,247.139042 0.67686722,246.240642 C-0.262625721,245.342241 -1.37291891,244.893048 -2.65404564,244.893048 L-5.34439834,244.893048 C-6.62552508,244.893048 -7.71446647,245.342241 -8.61125519,246.240642 C-9.5080439,247.139042 -9.95643154,248.22994 -9.95643154,249.513369 L-9.95643154,280.315508 C-9.95643154,281.598937 -9.5080439,282.689835 -8.61125519,283.588235 C-7.71446647,284.486636 -6.62552508,284.935829 -5.34439834,284.935829 Z M20.5342324,297 L20.5342324,232.828877 L47.3096473,232.828877 C49.8719008,232.828877 52.0711354,233.748654 53.907417,235.588235 C55.7436987,237.427817 56.6618257,239.631003 56.6618257,242.197861 L56.6618257,256.187166 L44.6192946,253.491979 L44.6192946,249.641711 C44.6192946,248.358282 44.170907,247.245994 43.2741183,246.304813 C42.3773295,245.363632 41.2883881,244.893048 40.0072614,244.893048 L32.5767635,244.893048 L32.5767635,297 L20.5342324,297 Z M62.6830913,297 L62.6830913,232.828877 L113.543568,232.828877 C116.105822,232.828877 118.283705,233.748654 120.077282,235.588235 C121.87086,237.427817 122.767635,239.631003 122.767635,242.197861 L122.767635,297 L110.853216,297 L110.853216,249.513369 C110.853216,248.22994 110.383476,247.139042 109.443983,246.240642 C108.50449,245.342241 107.394197,244.893048 106.113071,244.893048 L98.8106846,244.893048 L98.8106846,297 L86.7681535,297 L86.7681535,249.513369 C86.7681535,248.22994 86.2984141,247.139042 85.3589212,246.240642 C84.4194282,245.342241 83.309135,244.893048 82.0280083,244.893048 L74.7256224,244.893048 L74.7256224,297 L62.6830913,297 Z M139.037863,297 C136.47561,297 134.276375,296.101613 132.440093,294.304813 C130.603812,292.508012 129.685685,290.283436 129.685685,287.631016 L129.685685,268.251337 C129.685685,265.684479 130.603812,263.481293 132.440093,261.641711 C134.276375,259.80213 136.47561,258.882353 139.037863,258.882353 L149.030602,258.882353 C150.397137,258.882353 151.528782,258.43316 152.425571,257.534759 C153.322359,256.636359 153.770747,255.545461 153.770747,254.262032 L153.770747,249.513369 C153.770747,248.22994 153.322359,247.139042 152.425571,246.240642 C151.528782,245.342241 150.397137,244.893048 149.030602,244.893048 L135.194502,244.893048 L137.884855,232.828877 L156.4611,232.828877 C159.023353,232.828877 161.222588,233.748654 163.058869,235.588235 C164.895151,237.427817 165.813278,239.631003 165.813278,242.197861 L165.813278,297 L139.037863,297 Z M146.340249,284.935829 L153.770747,284.935829 L153.770747,270.946524 L146.340249,270.946524 C145.059122,270.946524 143.970181,271.395717 143.073392,272.294118 C142.176603,273.192518 141.728216,274.283416 141.728216,275.566845 L141.728216,280.315508 C141.728216,281.598937 142.176603,282.689835 143.073392,283.588235 C143.970181,284.486636 145.059122,284.935829 146.340249,284.935829 Z M172.731328,297 L172.731328,232.828877 L199.506743,232.828877 C201.983588,232.828877 204.161471,233.727264 206.040456,235.524064 C207.919442,237.320865 208.858921,239.502661 208.858921,242.069519 L208.858921,297 L196.81639,297 L196.81639,249.513369 C196.81639,248.144378 196.346651,247.03209 195.407158,246.176471 C194.467665,245.320851 193.400075,244.893048 192.204357,244.893048 L184.773859,244.893048 L184.773859,297 L172.731328,297 Z M226.41027,297 C223.762608,297 221.542021,296.080223 219.748444,294.240642 C217.954867,292.40106 217.058091,290.197874 217.058091,287.631016 L217.058091,242.197861 C217.058091,239.631003 217.954867,237.427817 219.748444,235.588235 C221.542021,233.748654 223.762608,232.828877 226.41027,232.828877 L243.833506,232.828877 C246.39576,232.828877 248.594994,233.748654 250.431276,235.588235 C252.267558,237.427817 253.185685,239.631003 253.185685,242.197861 L253.185685,256.187166 L241.143154,256.187166 L241.143154,249.513369 C241.143154,248.22994 240.673414,247.139042 239.733921,246.240642 C238.794428,245.342241 237.684135,244.893048 236.403008,244.893048 L233.712656,244.893048 C232.431529,244.893048 231.342587,245.342241 230.445799,246.240642 C229.54901,247.139042 229.100622,248.22994 229.100622,249.513369 L229.100622,280.315508 C229.100622,281.598937 229.54901,282.689835 230.445799,283.588235 C231.342587,284.486636 232.431529,284.935829 233.712656,284.935829 L236.403008,284.935829 C237.684135,284.935829 238.794428,284.486636 239.733921,283.588235 C240.673414,282.689835 241.143154,281.598937 241.143154,280.315508 L241.143154,273.641711 L253.185685,273.641711 L253.185685,287.631016 C253.185685,290.197874 252.267558,292.40106 250.431276,294.240642 C248.594994,296.080223 246.39576,297 243.833506,297 L226.41027,297 Z M270.224585,297 C267.662332,297 265.463097,296.080223 263.626815,294.240642 C261.790534,292.40106 260.872407,290.197874 260.872407,287.631016 L260.872407,242.069519 C260.872407,239.502661 261.790534,237.320865 263.626815,235.524064 C265.463097,233.727264 267.662332,232.828877 270.224585,232.828877 L287.647822,232.828877 C290.295484,232.828877 292.51607,233.727264 294.309647,235.524064 C296.103225,237.320865 297,239.502661 297,242.069519 L297,261.57754 C297,264.144398 296.103225,266.347584 294.309647,268.187166 C292.51607,270.026747 290.295484,270.946524 287.647822,270.946524 L272.914938,270.946524 L272.914938,280.315508 C272.914938,281.598937 273.363325,282.689835 274.260114,283.588235 C275.156903,284.486636 276.288548,284.935829 277.655083,284.935829 L294.309647,284.935829 L297,297 L270.224585,297 Z M272.914938,258.882353 L272.914938,249.513369 C272.914938,248.22994 273.363325,247.139042 274.260114,246.240642 C275.156903,245.342241 276.288548,244.893048 277.655083,244.893048 L280.345436,244.893048 C281.626562,244.893048 282.715504,245.342241 283.612293,246.240642 C284.509081,247.139042 284.957469,248.22994 284.957469,249.513369 L284.957469,254.262032 C284.957469,255.545461 284.509081,256.636359 283.612293,257.534759 C282.715504,258.43316 281.626562,258.882353 280.345436,258.882353 L272.914938,258.882353 Z" id="Performance" stroke="#022630" stroke-width="1.5" fill="#022630" fill-rule="nonzero" transform="translate(50.000000, 249.000000) rotate(-90.000000) translate(-50.000000, -249.000000) "></path>
        <path d="M128.21863,399.87217 C125.828603,399.87217 123.694682,398.977372 121.816804,397.18775 C119.938925,395.398127 119,393.225046 119,390.668442 L119,319.595206 C119,317.123823 119.938925,314.972046 121.816804,313.139814 C123.694682,311.307581 125.828603,310.391478 128.21863,310.391478 L157.282922,310.391478 C159.929024,310.391478 162.126962,311.307581 163.876804,313.139814 C165.626645,314.972046 166.501553,317.123823 166.501553,319.595206 L166.501553,336.213049 L154.594155,338.89747 L154.594155,326.881491 C154.594155,325.688409 154.18871,324.623174 153.377808,323.685752 C152.566906,322.748331 151.478607,322.279627 150.112877,322.279627 L135.516712,322.279627 C134.321699,322.279627 133.254738,322.748331 132.315799,323.685752 C131.37686,324.623174 130.907397,325.688409 130.907397,326.881491 L130.907397,383.382157 C130.907397,384.745679 131.37686,385.853524 132.315799,386.705726 C133.254738,387.557927 134.321699,387.984021 135.516712,387.984021 L150.112877,387.984021 C151.478607,387.984021 152.566906,387.557927 153.377808,386.705726 C154.18871,385.853524 154.594155,384.745679 154.594155,383.382157 L154.594155,374.050599 L166.501553,371.238349 L166.501553,390.668442 C166.501553,393.225046 165.626645,395.398127 163.876804,397.18775 C162.126962,398.977372 159.929024,399.87217 157.282922,399.87217 L128.21863,399.87217 Z M183.530411,399.87217 C180.884309,399.87217 178.665032,398.956068 176.872511,397.123835 C175.079991,395.291602 174.183744,393.097217 174.183744,390.540613 L174.183744,345.288948 C174.183744,342.732344 175.079991,340.537959 176.872511,338.705726 C178.665032,336.873493 180.884309,335.95739 183.530411,335.95739 L200.943379,335.95739 C203.504122,335.95739 205.680722,336.873493 207.473242,338.705726 C209.265762,340.537959 210.162009,342.732344 210.162009,345.288948 L210.162009,390.540613 C210.162009,393.097217 209.265762,395.291602 207.473242,397.123835 C205.680722,398.956068 203.504122,399.87217 200.943379,399.87217 L183.530411,399.87217 Z M190.828493,387.856192 L193.51726,387.856192 C194.797632,387.856192 195.907271,387.408793 196.84621,386.513981 C197.785149,385.61917 198.254612,384.53263 198.254612,383.254328 L198.254612,352.575233 C198.254612,351.296931 197.785149,350.210391 196.84621,349.315579 C195.907271,348.420768 194.797632,347.973369 193.51726,347.973369 L190.828493,347.973369 C189.548121,347.973369 188.459822,348.420768 187.563562,349.315579 C186.667301,350.210391 186.219178,351.296931 186.219178,352.575233 L186.219178,383.254328 C186.219178,384.53263 186.667301,385.61917 187.563562,386.513981 C188.459822,387.408793 189.548121,387.856192 190.828493,387.856192 Z M219.252603,399.87217 L219.252603,306.94008 L231.288037,304.255659 L231.288037,399.87217 L219.252603,399.87217 Z M241.530959,399.87217 L241.530959,306.94008 L253.566393,304.255659 L253.566393,399.87217 L241.530959,399.87217 Z M262.52895,318.828229 L262.52895,306.81225 L274.564384,304 L274.564384,316.015979 L262.52895,318.828229 Z M262.785023,399.87217 L262.785023,338.76964 L274.820457,335.95739 L274.820457,399.87217 L262.785023,399.87217 Z M293.001644,399.87217 C290.4409,399.87217 288.264301,398.956068 286.471781,397.123835 C284.67926,395.291602 283.783014,393.097217 283.783014,390.540613 L283.783014,379.930759 L295.690411,379.930759 L295.690411,383.254328 C295.690411,384.53263 296.159874,385.61917 297.098813,386.513981 C298.037752,387.408793 299.147391,387.856192 300.427763,387.856192 L303.11653,387.856192 C304.396901,387.856192 305.485201,387.408793 306.381461,386.513981 C307.277721,385.61917 307.725845,384.53263 307.725845,383.254328 L307.725845,378.524634 C307.725845,377.246332 307.277721,376.159791 306.381461,375.26498 C305.485201,374.370169 304.396901,373.92277 303.11653,373.92277 L293.001644,373.92277 C290.4409,373.92277 288.264301,373.006667 286.471781,371.174434 C284.67926,369.342201 283.783014,367.147816 283.783014,364.591212 L283.783014,345.288948 C283.783014,342.732344 284.67926,340.537959 286.471781,338.705726 C288.264301,336.873493 290.4409,335.95739 293.001644,335.95739 L310.542648,335.95739 C313.103392,335.95739 315.279991,336.873493 317.072511,338.705726 C318.865032,340.537959 319.761279,342.732344 319.761279,345.288948 L319.761279,355.898802 L307.725845,355.898802 L307.725845,352.575233 C307.725845,351.296931 307.277721,350.210391 306.381461,349.315579 C305.485201,348.420768 304.396901,347.973369 303.11653,347.973369 L300.427763,347.973369 C299.147391,347.973369 298.037752,348.420768 297.098813,349.315579 C296.159874,350.210391 295.690411,351.296931 295.690411,352.575233 L295.690411,357.304927 C295.690411,358.583229 296.159874,359.669769 297.098813,360.564581 C298.037752,361.459392 299.147391,361.906791 300.427763,361.906791 L310.542648,361.906791 C313.103392,361.906791 315.279991,362.822894 317.072511,364.655126 C318.865032,366.487359 319.761279,368.681745 319.761279,371.238349 L319.761279,391.051931 C319.67592,393.438094 318.736995,395.504652 316.944475,397.251664 C315.151955,398.998677 313.018034,399.87217 310.542648,399.87217 L293.001644,399.87217 Z M326.163105,318.828229 L326.163105,306.81225 L338.198539,304 L338.198539,316.015979 L326.163105,318.828229 Z M326.419178,399.87217 L326.419178,338.76964 L338.454612,335.95739 L338.454612,399.87217 L326.419178,399.87217 Z M359.068493,399.87217 C356.422392,399.87217 354.203114,398.956068 352.410594,397.123835 C350.618073,395.291602 349.721826,393.097217 349.721826,390.540613 L349.721826,345.288948 C349.721826,342.732344 350.618073,340.537959 352.410594,338.705726 C354.203114,336.873493 356.422392,335.95739 359.068493,335.95739 L376.481461,335.95739 C379.042205,335.95739 381.218804,336.873493 383.011324,338.705726 C384.803845,340.537959 385.700091,342.732344 385.700091,345.288948 L385.700091,390.540613 C385.700091,393.097217 384.803845,395.291602 383.011324,397.123835 C381.218804,398.956068 379.042205,399.87217 376.481461,399.87217 L359.068493,399.87217 Z M366.366575,387.856192 L369.055342,387.856192 C370.335714,387.856192 371.445353,387.408793 372.384292,386.513981 C373.323231,385.61917 373.792694,384.53263 373.792694,383.254328 L373.792694,352.575233 C373.792694,351.296931 373.323231,350.210391 372.384292,349.315579 C371.445353,348.420768 370.335714,347.973369 369.055342,347.973369 L366.366575,347.973369 C365.086204,347.973369 363.997904,348.420768 363.101644,349.315579 C362.205384,350.210391 361.75726,351.296931 361.75726,352.575233 L361.75726,383.254328 C361.75726,384.53263 362.205384,385.61917 363.101644,386.513981 C363.997904,387.408793 365.086204,387.856192 366.366575,387.856192 Z M394.022466,399.87217 L394.022466,335.95739 L420.7821,335.95739 C423.257486,335.95739 425.434085,336.852188 427.311963,338.641811 C429.189842,340.431434 430.128767,342.604515 430.128767,345.161119 L430.128767,399.87217 L418.093333,399.87217 L418.093333,352.575233 C418.093333,351.211711 417.623871,350.103866 416.684932,349.251664 C415.745992,348.399463 414.679032,347.973369 413.484018,347.973369 L406.0579,347.973369 L406.0579,399.87217 L394.022466,399.87217 Z M457.784658,400 L475.837808,310.519308 L487.489132,310.519308 L505.28621,400 L493.378813,400 L489.921826,383.254328 L472.892968,383.254328 L469.692055,400 L457.784658,400 Z M475.197626,371.494008 L487.873242,371.494008 L481.727489,339.664447 L475.197626,371.494008 Z M517.577717,399.87217 L505.542283,335.95739 L517.577717,335.95739 L523.595434,367.91478 L529.613151,335.95739 L541.648584,335.95739 L529.613151,399.87217 L517.577717,399.87217 Z M557.141005,399.87217 C554.494903,399.87217 552.275625,398.956068 550.483105,397.123835 C548.690585,395.291602 547.794338,393.097217 547.794338,390.540613 L547.794338,345.288948 C547.794338,342.732344 548.690585,340.537959 550.483105,338.705726 C552.275625,336.873493 554.494903,335.95739 557.141005,335.95739 L574.553973,335.95739 C577.114716,335.95739 579.291315,336.873493 581.083836,338.705726 C582.876356,340.537959 583.772603,342.732344 583.772603,345.288948 L583.772603,390.540613 C583.772603,393.097217 582.876356,395.291602 581.083836,397.123835 C579.291315,398.956068 577.114716,399.87217 574.553973,399.87217 L557.141005,399.87217 Z M564.439087,387.856192 L567.127854,387.856192 C568.408226,387.856192 569.517864,387.408793 570.456804,386.513981 C571.395743,385.61917 571.865205,384.53263 571.865205,383.254328 L571.865205,352.575233 C571.865205,351.296931 571.395743,350.210391 570.456804,349.315579 C569.517864,348.420768 568.408226,347.973369 567.127854,347.973369 L564.439087,347.973369 C563.158715,347.973369 562.070415,348.420768 561.174155,349.315579 C560.277895,350.210391 559.829772,351.296931 559.829772,352.575233 L559.829772,383.254328 C559.829772,384.53263 560.277895,385.61917 561.174155,386.513981 C562.070415,387.408793 563.158715,387.856192 564.439087,387.856192 Z M591.582831,318.828229 L591.582831,306.81225 L603.618265,304 L603.618265,316.015979 L591.582831,318.828229 Z M591.838904,399.87217 L591.838904,338.76964 L603.874338,335.95739 L603.874338,399.87217 L591.838904,399.87217 Z M619.622831,399.87217 C616.97673,399.87217 614.757452,398.977372 612.964932,397.18775 C611.172411,395.398127 610.276164,393.182437 610.276164,390.540613 L610.276164,345.288948 C610.276164,342.647124 611.172411,340.431434 612.964932,338.641811 C614.757452,336.852188 616.97673,335.95739 619.622831,335.95739 L634.347032,335.95739 L634.347032,306.81225 L646.382466,304 L646.382466,399.87217 L619.622831,399.87217 Z M626.920913,387.856192 L634.347032,387.856192 L634.347032,347.973369 L626.920913,347.973369 C625.7259,347.973369 624.658939,348.399463 623.72,349.251664 C622.781061,350.103866 622.311598,351.211711 622.311598,352.575233 L622.311598,383.254328 C622.311598,384.447409 622.781061,385.512645 623.72,386.450067 C624.658939,387.387488 625.7259,387.856192 626.920913,387.856192 Z M662.130959,399.87217 C659.570216,399.87217 657.372277,398.977372 655.537078,397.18775 C653.701878,395.398127 652.784292,393.182437 652.784292,390.540613 L652.784292,371.238349 C652.784292,368.681745 653.701878,366.487359 655.537078,364.655126 C657.372277,362.822894 659.570216,361.906791 662.130959,361.906791 L672.117808,361.906791 C673.483538,361.906791 674.614516,361.459392 675.510776,360.564581 C676.407036,359.669769 676.85516,358.583229 676.85516,357.304927 L676.85516,352.575233 C676.85516,351.296931 676.407036,350.210391 675.510776,349.315579 C674.614516,348.420768 673.483538,347.973369 672.117808,347.973369 L658.289863,347.973369 L660.97863,335.95739 L679.543927,335.95739 C682.10467,335.95739 684.302609,336.873493 686.137808,338.705726 C687.973008,340.537959 688.890594,342.732344 688.890594,345.288948 L688.890594,399.87217 L662.130959,399.87217 Z M669.429041,387.856192 L676.85516,387.856192 L676.85516,373.92277 L669.429041,373.92277 C668.148669,373.92277 667.06037,374.370169 666.16411,375.26498 C665.267849,376.159791 664.819726,377.246332 664.819726,378.524634 L664.819726,383.254328 C664.819726,384.53263 665.267849,385.61917 666.16411,386.513981 C667.06037,387.408793 668.148669,387.856192 669.429041,387.856192 Z M695.804566,399.87217 L695.804566,335.95739 L722.564201,335.95739 C725.039586,335.95739 727.216185,336.852188 729.094064,338.641811 C730.971942,340.431434 731.910868,342.604515 731.910868,345.161119 L731.910868,399.87217 L719.875434,399.87217 L719.875434,352.575233 C719.875434,351.211711 719.405971,350.103866 718.467032,349.251664 C717.528093,348.399463 716.461132,347.973369 715.266119,347.973369 L707.84,347.973369 L707.84,399.87217 L695.804566,399.87217 Z M749.451872,399.87217 C746.805771,399.87217 744.586493,398.956068 742.793973,397.123835 C741.001452,395.291602 740.105205,393.097217 740.105205,390.540613 L740.105205,345.288948 C740.105205,342.732344 741.001452,340.537959 742.793973,338.705726 C744.586493,336.873493 746.805771,335.95739 749.451872,335.95739 L766.86484,335.95739 C769.425584,335.95739 771.623522,336.873493 773.458721,338.705726 C775.293921,340.537959 776.211507,342.732344 776.211507,345.288948 L776.211507,359.22237 L764.176073,359.22237 L764.176073,352.575233 C764.176073,351.296931 763.70661,350.210391 762.767671,349.315579 C761.828732,348.420768 760.719093,347.973369 759.438721,347.973369 L756.749954,347.973369 C755.469583,347.973369 754.381283,348.420768 753.485023,349.315579 C752.588763,350.210391 752.140639,351.296931 752.140639,352.575233 L752.140639,383.254328 C752.140639,384.53263 752.588763,385.61917 753.485023,386.513981 C754.381283,387.408793 755.469583,387.856192 756.749954,387.856192 L759.438721,387.856192 C760.719093,387.856192 761.828732,387.408793 762.767671,386.513981 C763.70661,385.61917 764.176073,384.53263 764.176073,383.254328 L764.176073,376.60719 L776.211507,376.60719 L776.211507,390.540613 C776.211507,393.097217 775.293921,395.291602 773.458721,397.123835 C771.623522,398.956068 769.425584,399.87217 766.86484,399.87217 L749.451872,399.87217 Z M793.240365,399.87217 C790.679622,399.87217 788.481683,398.956068 786.646484,397.123835 C784.811285,395.291602 783.893699,393.097217 783.893699,390.540613 L783.893699,345.161119 C783.893699,342.604515 784.811285,340.431434 786.646484,338.641811 C788.481683,336.852188 790.679622,335.95739 793.240365,335.95739 L810.653333,335.95739 C813.299435,335.95739 815.518712,336.852188 817.311233,338.641811 C819.103753,340.431434 820,342.604515 820,345.161119 L820,364.591212 C820,367.147816 819.103753,369.342201 817.311233,371.174434 C815.518712,373.006667 813.299435,373.92277 810.653333,373.92277 L795.929132,373.92277 L795.929132,383.254328 C795.929132,384.53263 796.377256,385.61917 797.273516,386.513981 C798.169776,387.408793 799.300754,387.856192 800.666484,387.856192 L817.311233,387.856192 L820,399.87217 L793.240365,399.87217 Z M795.929132,361.906791 L795.929132,352.575233 C795.929132,351.296931 796.377256,350.210391 797.273516,349.315579 C798.169776,348.420768 799.300754,347.973369 800.666484,347.973369 L803.355251,347.973369 C804.635623,347.973369 805.723922,348.420768 806.620183,349.315579 C807.516443,350.210391 807.964566,351.296931 807.964566,352.575233 L807.964566,357.304927 C807.964566,358.583229 807.516443,359.669769 806.620183,360.564581 C805.723922,361.459392 804.635623,361.906791 803.355251,361.906791 L795.929132,361.906791 Z" id="CollisionAvoidance" stroke="#022630" stroke-width="1.5" fill="#022630" fill-rule="nonzero" transform="translate(469.500000, 352.000000) rotate(-90.000000) translate(-469.500000, -352.000000) "></path>
        <path d="M-11.7815534,261 C-14.171533,261 -16.3054113,260.104009 -18.1832524,258.312 C-20.0610935,256.519991 -21,254.344013 -21,251.784 L-21,180.616 C-21,178.141321 -20.0610935,175.986676 -18.1832524,174.152 C-16.3054113,172.317324 -14.171533,171.4 -11.7815534,171.4 L17.2821602,171.4 C19.928209,171.4 22.1261037,172.317324 23.8759102,174.152 C25.6257167,175.986676 26.5006068,178.141321 26.5006068,180.616 L26.5006068,197.256 L14.5934466,199.944 L14.5934466,187.912 C14.5934466,186.717327 14.1880097,185.650671 13.3771238,184.712 C12.5662379,183.773329 11.4779599,183.304 10.1122573,183.304 L-4.4836165,183.304 C-5.6786063,183.304 -6.74554547,183.773329 -7.68446602,184.712 C-8.62338657,185.650671 -9.09283981,186.717327 -9.09283981,187.912 L-9.09283981,244.488 C-9.09283981,245.85334 -8.62338657,246.962662 -7.68446602,247.816 C-6.74554547,248.669338 -5.6786063,249.096 -4.4836165,249.096 L10.1122573,249.096 C11.4779599,249.096 12.5662379,248.669338 13.3771238,247.816 C14.1880097,246.962662 14.5934466,245.85334 14.5934466,244.488 L14.5934466,235.144 L26.5006068,232.328 L26.5006068,251.784 C26.5006068,254.344013 25.6257167,256.519991 23.8759102,258.312 C22.1261037,260.104009 19.928209,261 17.2821602,261 L-11.7815534,261 Z M43.5291262,261 C40.8830774,261 38.6638439,260.082676 36.8713592,258.248 C35.0788745,256.413324 34.1826456,254.216013 34.1826456,251.656 L34.1826456,206.344 C34.1826456,203.783987 35.0788745,201.586676 36.8713592,199.752 C38.6638439,197.917324 40.8830774,197 43.5291262,197 L60.9417476,197 C63.50244,197 65.6789959,197.917324 67.4714806,199.752 C69.2639653,201.586676 70.1601942,203.783987 70.1601942,206.344 L70.1601942,251.656 C70.1601942,254.216013 69.2639653,256.413324 67.4714806,258.248 C65.6789959,260.082676 63.50244,261 60.9417476,261 L43.5291262,261 Z M50.8270631,248.968 L53.5157767,248.968 C54.7961229,248.968 55.9057396,248.520004 56.8446602,247.624 C57.7835807,246.727996 58.253034,245.640006 58.253034,244.36 L58.253034,213.64 C58.253034,212.359994 57.7835807,211.272004 56.8446602,210.376 C55.9057396,209.479996 54.7961229,209.032 53.5157767,209.032 L50.8270631,209.032 C49.5467169,209.032 48.4584389,209.479996 47.5621966,210.376 C46.6659543,211.272004 46.2178398,212.359994 46.2178398,213.64 L46.2178398,244.36 C46.2178398,245.640006 46.6659543,246.727996 47.5621966,247.624 C48.4584389,248.520004 49.5467169,248.968 50.8270631,248.968 Z M78.4824029,261 L78.4824029,197 L105.241505,197 C107.716841,197 109.893397,197.895991 111.771238,199.688 C113.649079,201.480009 114.587985,203.655987 114.587985,206.216 L114.587985,261 L102.552791,261 L102.552791,213.64 C102.552791,212.27466 102.083338,211.165338 101.144417,210.312 C100.205497,209.458662 99.1385578,209.032 97.943568,209.032 L90.5175971,209.032 L90.5175971,261 L78.4824029,261 Z M133.537015,261 L121.50182,197 L133.537015,197 L139.554612,229 L145.572209,197 L157.607403,197 L145.572209,261 L133.537015,261 Z M170.794903,261 C168.23421,261 166.036316,260.082676 164.201153,258.248 C162.36599,256.413324 161.448422,254.216013 161.448422,251.656 L161.448422,206.216 C161.448422,203.655987 162.36599,201.480009 164.201153,199.688 C166.036316,197.895991 168.23421,197 170.794903,197 L188.207524,197 C190.853573,197 193.072807,197.895991 194.865291,199.688 C196.657776,201.480009 197.554005,203.655987 197.554005,206.216 L197.554005,225.672 C197.554005,228.232013 196.657776,230.429324 194.865291,232.264 C193.072807,234.098676 190.853573,235.016 188.207524,235.016 L173.483617,235.016 L173.483617,244.36 C173.483617,245.640006 173.931731,246.727996 174.827973,247.624 C175.724216,248.520004 176.855171,248.968 178.220874,248.968 L194.865291,248.968 L197.554005,261 L170.794903,261 Z M173.483617,222.984 L180.909587,222.984 C182.189934,222.984 183.278212,222.536004 184.174454,221.64 C185.070696,220.743996 185.518811,219.656006 185.518811,218.376 L185.518811,213.64 C185.518811,212.359994 185.070696,211.272004 184.174454,210.376 C183.278212,209.479996 182.189934,209.032 180.909587,209.032 L178.220874,209.032 C176.855171,209.032 175.724216,209.479996 174.827973,210.376 C173.931731,211.272004 173.483617,212.359994 173.483617,213.64 L173.483617,222.984 Z M203.955704,261 L203.955704,197 L230.714806,197 C233.275498,197 235.473393,197.917324 237.308556,199.752 C239.143719,201.586676 240.061286,203.783987 240.061286,206.344 L240.061286,220.296 L228.026092,217.608 L228.026092,213.768 C228.026092,212.487994 227.577978,211.378671 226.681735,210.44 C225.785493,209.501329 224.697215,209.032 223.416869,209.032 L215.990898,209.032 L215.990898,261 L203.955704,261 Z M247.743325,261 L247.743325,167.816 L259.778519,165.128 L259.778519,197 L275.014563,197 L272.197816,209.032 L259.778519,209.032 L259.778519,261 L247.743325,261 Z M278.855583,179.848 L278.855583,167.816 L290.890777,165 L290.890777,177.032 L278.855583,179.848 Z M279.11165,261 L279.11165,199.816 L291.146845,197 L291.146845,261 L279.11165,261 Z M300.109223,261 L300.109223,167.688 L312.144417,165 L312.144417,197 L326.868325,197 C329.429018,197 331.626912,197.895991 333.462075,199.688 C335.297238,201.480009 336.214806,203.698653 336.214806,206.344 L336.214806,251.656 C336.214806,254.216013 335.297238,256.413324 333.462075,258.248 C331.626912,260.082676 329.429018,261 326.868325,261 L300.109223,261 Z M312.144417,248.968 L319.442354,248.968 C320.722701,248.968 321.832317,248.520004 322.771238,247.624 C323.710158,246.727996 324.179612,245.640006 324.179612,244.36 L324.179612,213.64 C324.179612,212.359994 323.710158,211.272004 322.771238,210.376 C321.832317,209.479996 320.722701,209.032 319.442354,209.032 L312.144417,209.032 L312.144417,248.968 Z M343.896845,261 L343.896845,167.944 L355.932039,165.256 L355.932039,261 L343.896845,261 Z M374.240898,261 C371.680206,261 369.482311,260.082676 367.647148,258.248 C365.811985,256.413324 364.894417,254.216013 364.894417,251.656 L364.894417,206.216 C364.894417,203.655987 365.811985,201.480009 367.647148,199.688 C369.482311,197.895991 371.680206,197 374.240898,197 L391.653519,197 C394.299568,197 396.518802,197.895991 398.311286,199.688 C400.103771,201.480009 401,203.655987 401,206.216 L401,225.672 C401,228.232013 400.103771,230.429324 398.311286,232.264 C396.518802,234.098676 394.299568,235.016 391.653519,235.016 L376.929612,235.016 L376.929612,244.36 C376.929612,245.640006 377.377726,246.727996 378.273968,247.624 C379.170211,248.520004 380.301166,248.968 381.666869,248.968 L398.311286,248.968 L401,261 L374.240898,261 Z M376.929612,222.984 L376.929612,213.64 C376.929612,212.359994 377.377726,211.272004 378.273968,210.376 C379.170211,209.479996 380.301166,209.032 381.666869,209.032 L384.355583,209.032 C385.635929,209.032 386.724207,209.479996 387.620449,210.376 C388.516691,211.272004 388.964806,212.359994 388.964806,213.64 L388.964806,218.376 C388.964806,219.656006 388.516691,220.743996 387.620449,221.64 C386.724207,222.536004 385.635929,222.984 384.355583,222.984 L376.929612,222.984 Z" id="Convertible" stroke="#022630" stroke-width="1.5" fill="#022630" fill-rule="nonzero" transform="translate(190.000000, 213.000000) rotate(-90.000000) translate(-190.000000, -213.000000) "></path>
        <path d="M38,343.198807 L56.0491701,253.437376 L67.6979253,253.437376 L85.4910788,343.198807 L73.5863071,343.198807 L70.130083,326.400596 L53.1049793,326.400596 L49.9047718,343.198807 L38,343.198807 Z M55.4091286,314.60338 L68.0819502,314.60338 L61.9375519,282.673956 L55.4091286,314.60338 Z M101.492116,343.070577 C98.8465981,343.070577 96.6278098,342.172971 94.8356846,340.377734 C93.0435595,338.582496 92.1475104,336.359854 92.1475104,333.709742 L92.1475104,288.316103 C92.1475104,285.665991 93.0435595,283.443349 94.8356846,281.648111 C96.6278098,279.852874 98.8465981,278.955268 101.492116,278.955268 L116.213071,278.955268 L116.213071,249.718688 L128.245851,246.897614 L128.245851,343.070577 L101.492116,343.070577 Z M108.788589,331.016899 L116.213071,331.016899 L116.213071,291.008946 L108.788589,291.008946 C107.593839,291.008946 106.527114,291.436377 105.588382,292.291252 C104.64965,293.146128 104.18029,294.257448 104.18029,295.625249 L104.18029,326.400596 C104.18029,327.597421 104.64965,328.665999 105.588382,329.606362 C106.527114,330.546724 107.593839,331.016899 108.788589,331.016899 Z M135.414315,260.874751 L135.414315,248.821074 L147.447095,246 L147.447095,258.053678 L135.414315,260.874751 Z M120.949378,375 C118.30386,375 116.085071,374.102395 114.292946,372.307157 C112.500821,370.511919 111.604772,368.289278 111.604772,365.639165 L111.604772,351.790258 L123.637552,354.483101 L123.637552,358.33002 C123.637552,359.526845 124.085576,360.595423 124.981639,361.535785 C125.877702,362.476148 127.00843,362.946322 128.373859,362.946322 L130.806017,362.946322 C132.171445,362.946322 133.280839,362.476148 134.134232,361.535785 C134.987625,360.595423 135.414315,359.526845 135.414315,358.33002 L135.414315,281.648111 L147.447095,278.955268 L147.447095,365.639165 C147.447095,368.289278 146.551046,370.511919 144.758921,372.307157 C142.966796,374.102395 140.748008,375 138.10249,375 L120.949378,375 Z M167.032365,343.070577 C164.386847,343.070577 162.168059,342.172971 160.375934,340.377734 C158.583808,338.582496 157.687759,336.359854 157.687759,333.709742 L157.687759,278.955268 L169.720539,278.955268 L169.720539,326.400596 C169.720539,327.597421 170.189898,328.665999 171.128631,329.606362 C172.067363,330.546724 173.134088,331.016899 174.328838,331.016899 L181.75332,331.016899 L181.75332,278.955268 L193.7861,278.955268 L193.7861,343.070577 L167.032365,343.070577 Z M210.683195,343.070577 C208.123016,343.070577 205.946897,342.1516 204.154772,340.313618 C202.362647,338.475637 201.466598,336.274367 201.466598,333.709742 L201.466598,323.0666 L213.371369,323.0666 L213.371369,326.400596 C213.371369,327.682909 213.840728,328.772858 214.779461,329.670477 C215.718193,330.568096 216.827587,331.016899 218.107676,331.016899 L220.795851,331.016899 C222.07594,331.016899 223.164,330.568096 224.060062,329.670477 C224.956125,328.772858 225.404149,327.682909 225.404149,326.400596 L225.404149,321.656064 C225.404149,320.373751 224.956125,319.283802 224.060062,318.386183 C223.164,317.488564 222.07594,317.039761 220.795851,317.039761 L210.683195,317.039761 C208.123016,317.039761 205.946897,316.120785 204.154772,314.282803 C202.362647,312.444822 201.466598,310.243552 201.466598,307.678926 L201.466598,288.316103 C201.466598,285.751478 202.362647,283.550208 204.154772,281.712227 C205.946897,279.874245 208.123016,278.955268 210.683195,278.955268 L228.220332,278.955268 C230.780511,278.955268 232.95663,279.874245 234.748755,281.712227 C236.54088,283.550208 237.436929,285.751478 237.436929,288.316103 L237.436929,298.959245 L225.404149,298.959245 L225.404149,295.625249 C225.404149,294.342936 224.956125,293.252987 224.060062,292.355368 C223.164,291.457749 222.07594,291.008946 220.795851,291.008946 L218.107676,291.008946 C216.827587,291.008946 215.718193,291.457749 214.779461,292.355368 C213.840728,293.252987 213.371369,294.342936 213.371369,295.625249 L213.371369,300.369781 C213.371369,301.652094 213.840728,302.742043 214.779461,303.639662 C215.718193,304.537281 216.827587,304.986083 218.107676,304.986083 L228.220332,304.986083 C230.780511,304.986083 232.95663,305.90506 234.748755,307.743042 C236.54088,309.581023 237.436929,311.782293 237.436929,314.346918 L237.436929,334.222664 C237.35159,336.616314 236.412872,338.689355 234.620747,340.441849 C232.828622,342.194343 230.695171,343.070577 228.220332,343.070577 L210.683195,343.070577 Z M245.117427,343.070577 L245.117427,249.718688 L257.150207,247.025845 L257.150207,278.955268 L272.383195,278.955268 L269.567012,291.008946 L257.150207,291.008946 L257.150207,343.070577 L245.117427,343.070577 Z M280.447718,343.070577 C277.887539,343.070577 275.690085,342.172971 273.85529,340.377734 C272.020496,338.582496 271.103112,336.359854 271.103112,333.709742 L271.103112,314.346918 C271.103112,311.782293 272.020496,309.581023 273.85529,307.743042 C275.690085,305.90506 277.887539,304.986083 280.447718,304.986083 L290.432365,304.986083 C291.797794,304.986083 292.928522,304.537281 293.824585,303.639662 C294.720648,302.742043 295.168672,301.652094 295.168672,300.369781 L295.168672,295.625249 C295.168672,294.342936 294.720648,293.252987 293.824585,292.355368 C292.928522,291.457749 291.797794,291.008946 290.432365,291.008946 L276.607469,291.008946 L279.295643,278.955268 L297.856846,278.955268 C300.417025,278.955268 302.614479,279.874245 304.449274,281.712227 C306.284069,283.550208 307.201452,285.751478 307.201452,288.316103 L307.201452,343.070577 L280.447718,343.070577 Z M287.744191,331.016899 L295.168672,331.016899 L295.168672,317.039761 L287.744191,317.039761 C286.464101,317.039761 285.376042,317.488564 284.479979,318.386183 C283.583917,319.283802 283.135892,320.373751 283.135892,321.656064 L283.135892,326.400596 C283.135892,327.682909 283.583917,328.772858 284.479979,329.670477 C285.376042,330.568096 286.464101,331.016899 287.744191,331.016899 Z M314.88195,343.070577 L314.88195,249.590457 L326.91473,246.897614 L326.91473,278.955268 L341.635685,278.955268 C344.195863,278.955268 346.393317,279.852874 348.228112,281.648111 C350.062907,283.443349 350.98029,285.665991 350.98029,288.316103 L350.98029,333.709742 C350.98029,336.274367 350.062907,338.475637 348.228112,340.313618 C346.393317,342.1516 344.195863,343.070577 341.635685,343.070577 L314.88195,343.070577 Z M326.91473,331.016899 L334.211203,331.016899 C335.491293,331.016899 336.600687,330.568096 337.539419,329.670477 C338.478151,328.772858 338.94751,327.682909 338.94751,326.400596 L338.94751,295.625249 C338.94751,294.342936 338.478151,293.252987 337.539419,292.355368 C336.600687,291.457749 335.491293,291.008946 334.211203,291.008946 L326.91473,291.008946 L326.91473,331.016899 Z M358.660788,343.070577 L358.660788,249.846918 L370.693568,247.154076 L370.693568,343.070577 L358.660788,343.070577 Z M388.998755,343.070577 C386.438576,343.070577 384.241123,342.1516 382.406328,340.313618 C380.571533,338.475637 379.654149,336.274367 379.654149,333.709742 L379.654149,288.187873 C379.654149,285.623248 380.571533,283.443349 382.406328,281.648111 C384.241123,279.852874 386.438576,278.955268 388.998755,278.955268 L406.407884,278.955268 C409.053402,278.955268 411.27219,279.852874 413.064315,281.648111 C414.85644,283.443349 415.75249,285.623248 415.75249,288.187873 L415.75249,307.678926 C415.75249,310.243552 414.85644,312.444822 413.064315,314.282803 C411.27219,316.120785 409.053402,317.039761 406.407884,317.039761 L391.686929,317.039761 L391.686929,326.400596 C391.686929,327.682909 392.134954,328.772858 393.031017,329.670477 C393.927079,330.568096 395.057808,331.016899 396.423237,331.016899 L413.064315,331.016899 L415.75249,343.070577 L388.998755,343.070577 Z M391.686929,304.986083 L399.111411,304.986083 C400.3915,304.986083 401.47956,304.537281 402.375622,303.639662 C403.271685,302.742043 403.71971,301.652094 403.71971,300.369781 L403.71971,295.625249 C403.71971,294.342936 403.271685,293.252987 402.375622,292.355368 C401.47956,291.457749 400.3915,291.008946 399.111411,291.008946 L396.423237,291.008946 C395.057808,291.008946 393.927079,291.457749 393.031017,292.355368 C392.134954,293.252987 391.686929,294.342936 391.686929,295.625249 L391.686929,304.986083 Z M455.691079,343.070577 C453.1309,343.070577 450.954781,342.172971 449.162656,340.377734 C447.37053,338.582496 446.474481,336.402597 446.474481,333.837972 L446.474481,313.962227 L458.379253,316.65507 L458.379253,326.528827 C458.379253,327.81114 458.827278,328.901089 459.72334,329.798708 C460.619403,330.696327 461.664793,331.145129 462.859544,331.145129 L477.45249,331.145129 C478.732579,331.145129 479.820639,330.696327 480.716701,329.798708 C481.612764,328.901089 482.060788,327.81114 482.060788,326.528827 L482.060788,303.960239 C482.060788,302.677926 481.612764,301.587977 480.716701,300.690358 C479.820639,299.792739 478.732579,299.343936 477.45249,299.343936 L455.691079,299.343936 C453.1309,299.343936 450.954781,298.446331 449.162656,296.651093 C447.37053,294.855856 446.474481,292.675957 446.474481,290.111332 L446.474481,262.54175 C446.474481,259.977124 447.37053,257.797226 449.162656,256.001988 C450.954781,254.20675 453.1309,253.309145 455.691079,253.309145 L484.748963,253.309145 C487.309141,253.309145 489.485261,254.20675 491.277386,256.001988 C493.069511,257.797226 493.96556,259.977124 493.96556,262.54175 L493.96556,276.390656 L482.060788,273.569583 L482.060788,269.850895 C482.060788,268.568582 481.612764,267.478633 480.716701,266.581014 C479.820639,265.683395 478.732579,265.234592 477.45249,265.234592 L462.859544,265.234592 C461.664793,265.234592 460.619403,265.683395 459.72334,266.581014 C458.827278,267.478633 458.379253,268.568582 458.379253,269.850895 L458.379253,282.802187 C458.379253,284.084499 458.827278,285.174449 459.72334,286.072068 C460.619403,286.969686 461.664793,287.418489 462.859544,287.418489 L484.748963,287.418489 C487.309141,287.418489 489.485261,288.316094 491.277386,290.111332 C493.069511,291.90657 493.96556,294.086468 493.96556,296.651093 L493.96556,333.837972 C493.96556,336.402597 493.069511,338.582496 491.277386,340.377734 C489.485261,342.172971 487.309141,343.070577 484.748963,343.070577 L455.691079,343.070577 Z M510.990664,343.070577 C508.430485,343.070577 506.233031,342.1516 504.398237,340.313618 C502.563442,338.475637 501.646058,336.274367 501.646058,333.709742 L501.646058,288.187873 C501.646058,285.623248 502.563442,283.443349 504.398237,281.648111 C506.233031,279.852874 508.430485,278.955268 510.990664,278.955268 L528.399793,278.955268 C531.045311,278.955268 533.264099,279.852874 535.056224,281.648111 C536.848349,283.443349 537.744398,285.623248 537.744398,288.187873 L537.744398,307.678926 C537.744398,310.243552 536.848349,312.444822 535.056224,314.282803 C533.264099,316.120785 531.045311,317.039761 528.399793,317.039761 L513.678838,317.039761 L513.678838,326.400596 C513.678838,327.682909 514.126863,328.772858 515.022925,329.670477 C515.918988,330.568096 517.049717,331.016899 518.415145,331.016899 L535.056224,331.016899 L537.744398,343.070577 L510.990664,343.070577 Z M513.678838,304.986083 L521.10332,304.986083 C522.383409,304.986083 523.471469,304.537281 524.367531,303.639662 C525.263594,302.742043 525.711618,301.652094 525.711618,300.369781 L525.711618,295.625249 C525.711618,294.342936 525.263594,293.252987 524.367531,292.355368 C523.471469,291.457749 522.383409,291.008946 521.10332,291.008946 L518.415145,291.008946 C517.049717,291.008946 515.918988,291.457749 515.022925,292.355368 C514.126863,293.252987 513.678838,294.342936 513.678838,295.625249 L513.678838,304.986083 Z M553.489419,343.070577 C550.92924,343.070577 548.731786,342.172971 546.896992,340.377734 C545.062197,338.582496 544.144813,336.359854 544.144813,333.709742 L544.144813,314.346918 C544.144813,311.782293 545.062197,309.581023 546.896992,307.743042 C548.731786,305.90506 550.92924,304.986083 553.489419,304.986083 L563.474066,304.986083 C564.839495,304.986083 565.970224,304.537281 566.866286,303.639662 C567.762349,302.742043 568.210373,301.652094 568.210373,300.369781 L568.210373,295.625249 C568.210373,294.342936 567.762349,293.252987 566.866286,292.355368 C565.970224,291.457749 564.839495,291.008946 563.474066,291.008946 L549.64917,291.008946 L552.337344,278.955268 L570.898548,278.955268 C573.458726,278.955268 575.65618,279.874245 577.490975,281.712227 C579.32577,283.550208 580.243154,285.751478 580.243154,288.316103 L580.243154,343.070577 L553.489419,343.070577 Z M560.785892,331.016899 L568.210373,331.016899 L568.210373,317.039761 L560.785892,317.039761 C559.505803,317.039761 558.417743,317.488564 557.52168,318.386183 C556.625618,319.283802 556.177593,320.373751 556.177593,321.656064 L556.177593,326.400596 C556.177593,327.682909 556.625618,328.772858 557.52168,329.670477 C558.417743,330.568096 559.505803,331.016899 560.785892,331.016899 Z M587.923651,343.070577 L587.923651,249.718688 L599.956432,247.025845 L599.956432,278.955268 L615.189419,278.955268 L612.373237,291.008946 L599.956432,291.008946 L599.956432,343.070577 L587.923651,343.070577 Z M628.246266,343.070577 C625.686087,343.070577 623.509967,342.1516 621.717842,340.313618 C619.925717,338.475637 619.029668,336.274367 619.029668,333.709742 L619.029668,323.0666 L630.93444,323.0666 L630.93444,326.400596 C630.93444,327.682909 631.403799,328.772858 632.342531,329.670477 C633.281263,330.568096 634.390657,331.016899 635.670747,331.016899 L638.358921,331.016899 C639.639011,331.016899 640.72707,330.568096 641.623133,329.670477 C642.519195,328.772858 642.96722,327.682909 642.96722,326.400596 L642.96722,321.656064 C642.96722,320.373751 642.519195,319.283802 641.623133,318.386183 C640.72707,317.488564 639.639011,317.039761 638.358921,317.039761 L628.246266,317.039761 C625.686087,317.039761 623.509967,316.120785 621.717842,314.282803 C619.925717,312.444822 619.029668,310.243552 619.029668,307.678926 L619.029668,288.316103 C619.029668,285.751478 619.925717,283.550208 621.717842,281.712227 C623.509967,279.874245 625.686087,278.955268 628.246266,278.955268 L645.783402,278.955268 C648.343581,278.955268 650.519701,279.874245 652.311826,281.712227 C654.103951,283.550208 655,285.751478 655,288.316103 L655,298.959245 L642.96722,298.959245 L642.96722,295.625249 C642.96722,294.342936 642.519195,293.252987 641.623133,292.355368 C640.72707,291.457749 639.639011,291.008946 638.358921,291.008946 L635.670747,291.008946 C634.390657,291.008946 633.281263,291.457749 632.342531,292.355368 C631.403799,293.252987 630.93444,294.342936 630.93444,295.625249 L630.93444,300.369781 C630.93444,301.652094 631.403799,302.742043 632.342531,303.639662 C633.281263,304.537281 634.390657,304.986083 635.670747,304.986083 L645.783402,304.986083 C648.343581,304.986083 650.519701,305.90506 652.311826,307.743042 C654.103951,309.581023 655,311.782293 655,314.346918 L655,334.222664 C654.914661,336.616314 653.975943,338.689355 652.183817,340.441849 C650.391692,342.194343 648.258242,343.070577 645.783402,343.070577 L628.246266,343.070577 Z" id="AdjustableSeats" stroke="#022630" stroke-width="1.5" fill="#022630" fill-rule="nonzero" transform="translate(346.500000, 310.500000) rotate(-90.000000) translate(-346.500000, -310.500000) "></path>
        <path d="M398,262 L398,172.4 L436.440617,172.4 C438.917913,172.4 441.053482,173.295991 442.847386,175.088 C444.64129,176.880009 445.538229,179.055987 445.538229,181.616 L445.538229,252.784 C445.538229,255.344013 444.64129,257.519991 442.847386,259.312 C441.053482,261.104009 438.917913,262 436.440617,262 L398,262 Z M409.916591,250.096 L429.136899,250.096 C430.332836,250.096 431.40062,249.648004 432.340284,248.752 C433.279948,247.855996 433.749773,246.768006 433.749773,245.488 L433.749773,188.912 C433.749773,187.631994 433.279948,186.544004 432.340284,185.648 C431.40062,184.751996 430.332836,184.304 429.136899,184.304 L409.916591,184.304 L409.916591,250.096 Z M453.482623,180.848 L453.482623,168.816 L465.52735,166 L465.52735,178.032 L453.482623,180.848 Z M453.738894,262 L453.738894,200.816 L465.78362,198 L465.78362,262 L453.738894,262 Z M474.368691,262 L474.368691,198 L525.238441,198 C527.801161,198 529.979441,198.917324 531.773345,200.752 C533.56725,202.586676 534.464189,204.783987 534.464189,207.344 L534.464189,262 L522.547597,262 L522.547597,214.64 C522.547597,213.359994 522.077772,212.272004 521.138108,211.376 C520.198444,210.479996 519.087948,210.032 517.806588,210.032 L510.502871,210.032 L510.502871,262 L498.458144,262 L498.458144,214.64 C498.458144,213.359994 497.988319,212.272004 497.048655,211.376 C496.108991,210.479996 494.998495,210.032 493.717135,210.032 L486.413418,210.032 L486.413418,262 L474.368691,262 Z M552.018737,262 C549.456016,262 547.256381,261.082676 545.419764,259.248 C543.583148,257.413324 542.664853,255.216013 542.664853,252.656 L542.664853,207.216 C542.664853,204.655987 543.583148,202.480009 545.419764,200.688 C547.256381,198.895991 549.456016,198 552.018737,198 L569.44515,198 C572.093294,198 574.314285,198.895991 576.10819,200.688 C577.902094,202.480009 578.799033,204.655987 578.799033,207.216 L578.799033,226.672 C578.799033,229.232013 577.902094,231.429324 576.10819,233.264 C574.314285,235.098676 572.093294,236.016 569.44515,236.016 L554.70958,236.016 L554.70958,245.36 C554.70958,246.640006 555.158049,247.727996 556.055002,248.624 C556.951954,249.520004 558.083805,249.968 559.450589,249.968 L576.10819,249.968 L578.799033,262 L552.018737,262 Z M554.70958,223.984 L562.141432,223.984 C563.422793,223.984 564.511933,223.536004 565.408885,222.64 C566.305837,221.743996 566.754306,220.656006 566.754306,219.376 L566.754306,214.64 C566.754306,213.359994 566.305837,212.272004 565.408885,211.376 C564.511933,210.479996 563.422793,210.032 562.141432,210.032 L559.450589,210.032 C558.083805,210.032 556.951954,210.479996 556.055002,211.376 C555.158049,212.272004 554.70958,213.359994 554.70958,214.64 L554.70958,223.984 Z M586.999698,262 L586.999698,198 L613.779994,198 C616.257291,198 618.43557,198.895991 620.314899,200.688 C622.194227,202.480009 623.133877,204.655987 623.133877,207.216 L623.133877,262 L611.089151,262 L611.089151,214.64 C611.089151,213.27466 610.619326,212.165338 609.679662,211.312 C608.739997,210.458662 607.672213,210.032 606.476277,210.032 L599.044424,210.032 L599.044424,262 L586.999698,262 Z M640.56029,262 C637.99757,262 635.81929,261.082676 634.025385,259.248 C632.231481,257.413324 631.334542,255.216013 631.334542,252.656 L631.334542,242.032 L643.251133,242.032 L643.251133,245.36 C643.251133,246.640006 643.720958,247.727996 644.660623,248.624 C645.600287,249.520004 646.710782,249.968 647.992143,249.968 L650.682986,249.968 C651.964346,249.968 653.053486,249.520004 653.950438,248.624 C654.84739,247.727996 655.29586,246.640006 655.29586,245.36 L655.29586,240.624 C655.29586,239.343994 654.84739,238.256004 653.950438,237.36 C653.053486,236.463996 651.964346,236.016 650.682986,236.016 L640.56029,236.016 C637.99757,236.016 635.81929,235.098676 634.025385,233.264 C632.231481,231.429324 631.334542,229.232013 631.334542,226.672 L631.334542,207.344 C631.334542,204.783987 632.231481,202.586676 634.025385,200.752 C635.81929,198.917324 637.99757,198 640.56029,198 L658.114838,198 C660.677559,198 662.855839,198.917324 664.649743,200.752 C666.443648,202.586676 667.340586,204.783987 667.340586,207.344 L667.340586,217.968 L655.29586,217.968 L655.29586,214.64 C655.29586,213.359994 654.84739,212.272004 653.950438,211.376 C653.053486,210.479996 651.964346,210.032 650.682986,210.032 L647.992143,210.032 C646.710782,210.032 645.600287,210.479996 644.660623,211.376 C643.720958,212.272004 643.251133,213.359994 643.251133,214.64 L643.251133,219.376 C643.251133,220.656006 643.720958,221.743996 644.660623,222.64 C645.600287,223.536004 646.710782,223.984 647.992143,223.984 L658.114838,223.984 C660.677559,223.984 662.855839,224.901324 664.649743,226.736 C666.443648,228.570676 667.340586,230.767987 667.340586,233.328 L667.340586,253.168 C667.255162,255.557345 666.315512,257.626658 664.521608,259.376 C662.727703,261.125342 660.592135,262 658.114838,262 L640.56029,262 Z M673.747356,180.848 L673.747356,168.816 L685.792082,166 L685.792082,178.032 L673.747356,180.848 Z M674.003626,262 L674.003626,200.816 L686.048353,198 L686.048353,262 L674.003626,262 Z M706.67815,262 C704.030006,262 701.809015,261.082676 700.01511,259.248 C698.221206,257.413324 697.324267,255.216013 697.324267,252.656 L697.324267,207.344 C697.324267,204.783987 698.221206,202.586676 700.01511,200.752 C701.809015,198.917324 704.030006,198 706.67815,198 L724.104563,198 C726.667284,198 728.845564,198.917324 730.639468,200.752 C732.433373,202.586676 733.330311,204.783987 733.330311,207.344 L733.330311,252.656 C733.330311,255.216013 732.433373,257.413324 730.639468,259.248 C728.845564,261.082676 726.667284,262 724.104563,262 L706.67815,262 Z M713.981868,249.968 L716.672711,249.968 C717.954071,249.968 719.064567,249.520004 720.004231,248.624 C720.943895,247.727996 721.41372,246.640006 721.41372,245.36 L721.41372,214.64 C721.41372,213.359994 720.943895,212.272004 720.004231,211.376 C719.064567,210.479996 717.954071,210.032 716.672711,210.032 L713.981868,210.032 C712.700507,210.032 711.611367,210.479996 710.714415,211.376 C709.817463,212.272004 709.368994,213.359994 709.368994,214.64 L709.368994,245.36 C709.368994,246.640006 709.817463,247.727996 710.714415,248.624 C711.611367,249.520004 712.700507,249.968 713.981868,249.968 Z M741.659112,262 L741.659112,198 L768.439408,198 C770.916704,198 773.094984,198.895991 774.974312,200.688 C776.853641,202.480009 777.793291,204.655987 777.793291,207.216 L777.793291,262 L765.748565,262 L765.748565,214.64 C765.748565,213.27466 765.278739,212.165338 764.339075,211.312 C763.399411,210.458662 762.331627,210.032 761.135691,210.032 L753.703838,210.032 L753.703838,262 L741.659112,262 Z M795.219704,262 C792.656983,262 790.478703,261.082676 788.684799,259.248 C786.890895,257.413324 785.993956,255.216013 785.993956,252.656 L785.993956,242.032 L797.910547,242.032 L797.910547,245.36 C797.910547,246.640006 798.380372,247.727996 799.320036,248.624 C800.2597,249.520004 801.370196,249.968 802.651556,249.968 L805.3424,249.968 C806.62376,249.968 807.7129,249.520004 808.609852,248.624 C809.506804,247.727996 809.955273,246.640006 809.955273,245.36 L809.955273,240.624 C809.955273,239.343994 809.506804,238.256004 808.609852,237.36 C807.7129,236.463996 806.62376,236.016 805.3424,236.016 L795.219704,236.016 C792.656983,236.016 790.478703,235.098676 788.684799,233.264 C786.890895,231.429324 785.993956,229.232013 785.993956,226.672 L785.993956,207.344 C785.993956,204.783987 786.890895,202.586676 788.684799,200.752 C790.478703,198.917324 792.656983,198 795.219704,198 L812.774252,198 C815.336973,198 817.515252,198.917324 819.309157,200.752 C821.103061,202.586676 822,204.783987 822,207.344 L822,217.968 L809.955273,217.968 L809.955273,214.64 C809.955273,213.359994 809.506804,212.272004 808.609852,211.376 C807.7129,210.479996 806.62376,210.032 805.3424,210.032 L802.651556,210.032 C801.370196,210.032 800.2597,210.479996 799.320036,211.376 C798.380372,212.272004 797.910547,213.359994 797.910547,214.64 L797.910547,219.376 C797.910547,220.656006 798.380372,221.743996 799.320036,222.64 C800.2597,223.536004 801.370196,223.984 802.651556,223.984 L812.774252,223.984 C815.336973,223.984 817.515252,224.901324 819.309157,226.736 C821.103061,228.570676 822,230.767987 822,233.328 L822,253.168 C821.914576,255.557345 820.974926,257.626658 819.181021,259.376 C817.387117,261.125342 815.251549,262 812.774252,262 L795.219704,262 Z" id="Dimensions" stroke="#022630" stroke-width="1.5" fill="#022630" fill-rule="nonzero" transform="translate(610.000000, 214.000000) rotate(-90.000000) translate(-610.000000, -214.000000) "></path>
    </g>
</svg>