<?xml version="1.0" encoding="UTF-8"?>
<svg width="309px" height="168px" viewBox="0 0 309 168" version="1.1" xmlns="http://www.w3.org/2000/svg" xmlns:xlink="http://www.w3.org/1999/xlink">
    <!-- Generator: Sketch 58 (84663) - https://sketch.com -->
    <title>Combined Shape</title>
    <desc>Created with Sketch.</desc>
    <g id="Page-2" stroke="none" stroke-width="1" fill="none" fill-rule="evenodd">
        <g id="home" transform="translate(-502.000000, -285.000000)" fill-rule="nonzero" stroke="#022630" stroke-width="2">
            <g id="trident" transform="translate(659.500000, 365.500000) rotate(-9.000000) translate(-659.500000, -365.500000) translate(500.000000, 297.000000)">
                <path d="M75.75,31.36 C76.14,32.87 75.92,34.13 74.57,34.61 C63.6433711,38.7524271 53.1359609,43.9257695 43.19,50.06 C46.95,49.5 50.93,49.82 51.31,51.33 C51.3601579,51.5070261 51.3566778,51.6949524 51.3,51.87 C45.7,70.91 37.68,105.09 35.78,134.33 C35.8286535,135.114345 35.3571993,135.837784 34.62,136.11 C32.1,136.75 26.42,132.43 25.42,128.52 C22.64,117.68 29.55,82.31 36,54.59 C25.2908606,61.5037286 15.3862943,69.5903894 6.47,78.7 C6.24540596,79.0077078 5.92552531,79.2326788 5.56,79.34 C3.79,79.79 1.73,77.5 1.14,75.23 C0.827351286,74.2318223 0.997402095,73.1449758 1.6,72.29 C14.44,56.36 46.72,28.73 66.39,23.68 C70.17,22.71 74.81,27.7 75.75,31.36 Z M181.43,0.09 C183.82,-0.48 186.34,3 186.99,5.52 C188.74,12.36 175.61,58.59 167.84,77.52 C167.13894,81.9699941 166.764607,86.4653422 166.72,90.97 C174.93,85.49 181.52,78.24 186.82,71.69 C189.75,64.04 197.22,57.21 204.35,55.38 C210.9,53.66 215.4,55.46 216.66,60.38 C218.7,68.32 208.93,76.34 200.25,80.72 C201.86,82.32 204.42,82.33 207.07,81.65 C209.725827,80.8665978 212.228436,79.6355845 214.47,78.01 C222.47,72.25 229.81,63.29 234.38,57.52 C235.05,54.89 235.82,52.15 236.67,49.33 C237.22,47.31 239.2,46.13 241.35,45.57 C245,44.67 249.39,45.52 249.94,47.67 C250.01,47.92 250.07,48.16 249.64,50.16 C249.06,53.16 246.62,60.86 245.57,65.16 C252.48,53.44 261.78,40.97 266.57,39.75 C268.96,39.13 272.38,40.94 273.03,43.46 C274.45,49.01 271.35,56.38 271.35,63.11 C279.76,57.59 287.5,48.42 292.21,42.59 C292.43,41.47 292.65,40.33 292.89,39.17 L292.89,39.17 L283.81,41.5 C282.55,41.82 281.92,41.45 281.69,40.57 C281.17,38.55 283.17,34.28 284.81,33.85 L284.81,33.85 L294.64,31.33 C295.84,26.05 297.29,20.71 298.58,15.8 C299.228475,13.9345223 300.821018,12.555334 302.76,12.18 C305.03,11.62 309.7,11.47 310.25,13.62 C310.344921,14.3473613 310.307656,15.085888 310.14,15.8 C309.44,19.87 308.45,23.89 307.62,28 L307.62,28 L316.2,25.81 C316.578607,25.6401027 317.014567,25.6552059 317.38051,25.8508969 C317.746452,26.046588 318.001079,26.4007829 318.07,26.81 C318.58,28.82 317,33 315.07,33.62 L315.07,33.62 L305.99,35.95 C304.46,43.6 303.37,51.41 303.78,55.6 C306.29,53.92 309.24,51.25 310.5,50.92 C311.126898,50.7021362 311.815893,50.7524386 312.404501,51.0590445 C312.993108,51.3656504 313.429224,51.9014186 313.61,52.54 C314.19,54.81 313.82,55.98 312.31,57.45 C309.56,60.18 302.48,65.75 296.56,67.27 C293.41,68.08 291.22,66.76 290.22,62.98 C289.81,61.4 289.89,58.51 290.3,54.79 C280.16,65.92 270.9,73.85 264.16,75.58 C261.01,76.39 258.76,74.96 257.82,71.3 C256.88,67.64 258.6,60.21 258.99,56.49 C251.19,65.22 242.52,81.69 238.99,82.59 C236.85,83.14 231.85,82.01 231.3,79.86 C230.86,78.08 230.99,74.93 231.59,70.86 C222.32,81.13 213.92,88.4 204.32,90.86 C195.29,93.18 188.64,91.12 186.13,82.23 C176.35,92.76 167.42,100.33 160.95,102 C157.8,102.8 155.61,101.49 154.61,97.71 C154.315671,96.5575853 154.191025,95.3683984 154.24,94.18 C150.02,101.31 144.49,106.61 139.49,107.91 C133.82,109.36 130.05,107.78 128.66,102.36 C128.498973,101.703175 128.39195,101.034277 128.34,100.36 C120.2,108.58 112.92,114.27 107.34,115.7 C104.19,116.51 102,115.2 101,111.41 C100.575011,108.874351 100.575011,106.285649 101,103.75 C92.94,112.49 82.86,122 77.47,123.33 C74.32,124.14 72.13,122.83 71.13,119.05 C70.29,115.77 73.28,109.09 73.82,105.46 C71.86,105.15 70.12,105.2 68.74,105.02 C62.16,116.39 58.38,122.6 51.74,129.68 C51.3041731,130.235598 50.695315,130.629772 50.01,130.8 C48.15,131.29 46.49,129.56 46.01,127.67 C45.7737564,126.869326 45.891441,126.00568 46.34,125.3 C52.064878,118.237043 57.34187,110.822535 62.14,103.1 C61.7120867,102.918076 61.3245845,102.652943 61,102.32 C59.347648,101.179257 58.1785474,99.4648136 57.72,97.51 C56.480028,92.3689003 59.555914,87.1744647 64.66,85.79 C69.19,84.62 72.14,86.15 73.01,89.55 C73.2603117,90.67851 73.3311814,91.8394221 73.22,92.99 C75.69,93.17 77.61,93.47 79.61,93.77 C82.13,94.2 83.25,95.39 83.67,97.03 C84.8,101.44 80.49,108.86 81.49,112.64 C90.4,106.26 98.09,97.38 103.09,91.09 C103.488313,88.6174239 104.080131,86.1799349 104.86,83.8 C105.526117,81.9446404 107.109596,80.5695142 109.04,80.17 C111.43,79.56 115.98,79.47 116.63,81.99 C117.46,85.14 114.46,96.65 114.46,103.37 C120.73,99.28 126.63,93.11 131.18,87.82 C135.25,79.27 142.44,71.2 147.18,69.99 C150.58,69.12 152.55,71.03 153,72.79 C154.65,79.22 145.33,86.86 140.13,89.13 C139.590305,90.6110431 139.534286,92.2251032 139.97,93.74 C140.49,95.62 141.7,97.2 143.97,96.62 C147.37,95.75 154.45,87.75 156.25,82.18 C158.73,64.08 174,2 181.43,0.09 Z M205.753519,62.3633387 C205.231077,62.0341808 204.59233,61.9455409 204,62.12 C200.14,63.12 197.52,68.1 198.21,74.63 C205.39,71.17 207.41,66.48 206.73,63.84 C206.63166,63.2303934 206.275962,62.6924965 205.753519,62.3633387 Z M119.043753,50.159029 C120.559905,51.0706157 121.630293,52.5699637 122,54.3 C123.41,60 119,67.83 113.68,69.19 C110,70.13 106.85,68.25 105.79,64.09 C104.65,59.68 107.82,51.07 114,49.49 C115.701376,49.0052026 117.5276,49.2474423 119.043753,50.159029 Z" id="Combined-Shape"></path>
            </g>
        </g>
    </g>
</svg>