<?xml version="1.0" encoding="UTF-8"?>
<svg width="45px" height="55px" viewBox="0 0 45 55" version="1.1" xmlns="http://www.w3.org/2000/svg" xmlns:xlink="http://www.w3.org/1999/xlink">
    <!-- Generator: Sketch 56.2 (81672) - https://sketch.com -->
    <title>Combined Shape</title>
    <desc>Created with Sketch.</desc>
    <g id="Page-1" stroke="none" stroke-width="1" fill="none" fill-rule="evenodd">
        <g id="Desktop-HD" transform="translate(-698.000000, -40.000000)" fill="#FFFFFF">
            <path d="M742.987332,53.1508982 L742.078368,61.2817867 C741.96897,62.2615118 741.176457,63 740.234698,63 L734.408044,63 C733.744853,63 733.132029,62.6293948 732.800495,62.0277933 L729.248542,55.5827111 C728.917132,54.9812393 728.917132,54.2400289 729.248666,53.6384274 L732.371568,47.9725365 C732.871158,47.0661806 733.966247,46.7365377 734.848976,47.2269188 L742.013397,51.2070033 C742.689583,51.582664 743.076434,52.3545961 742.987332,53.1508982 Z M712.734176,55.5427633 L708.937031,62.0225743 C708.582467,62.6274053 707.927317,63 707.218321,63 L700.941476,63 C699.934804,63 699.087555,62.2575475 698.970469,61.2726933 L698.013543,53.2271767 C697.918287,52.4264696 698.331857,51.6503936 699.054877,51.2727164 L706.798401,47.2281289 C707.742229,46.7351154 708.91282,47.0665278 709.446784,47.9780099 L712.734176,53.5881726 C713.088608,54.1930036 713.088608,54.9380627 712.734176,55.5427633 Z M729.736393,65.484881 L725.970911,72.0148563 C725.619434,72.624382 724.969616,73 724.266532,73 L716.733468,73 C716.030384,73 715.380697,72.624382 715.029089,72.0148563 L711.263607,65.484881 C710.912131,64.8753554 710.912131,64.1246446 711.263607,63.515119 L715.029089,56.9851437 C715.380697,56.3754867 716.030384,56 716.733468,56 L724.266532,56 C724.969616,56 725.619434,56.3754867 725.970911,56.9851437 L729.736393,63.515119 C730.087869,64.1246446 730.087869,64.8753554 729.736393,65.484881 Z M730.389397,86.8327749 L722.358009,94.4633471 C721.605746,95.1780556 720.428455,95.1789706 719.67502,94.4655691 L711.613161,86.8326442 C710.953351,86.2081238 710.80868,85.20978 711.263919,84.4223982 L715.568629,76.9765156 C715.918132,76.3719935 716.561664,76 717.257933,76 L724.740718,76 C725.436988,76 726.08065,76.3719935 726.430152,76.9765156 L730.736165,84.4247509 C731.190622,85.2110871 731.047123,86.2078624 730.389397,86.8327749 Z M729.736645,46.4633571 L726.431546,52.0433466 C726.080831,52.6353723 725.432792,53 724.731493,53 L717.217548,53 C716.516248,53 715.868079,52.6353723 715.517494,52.0433466 L712.263301,46.5486792 C711.707522,45.6103911 712.061509,44.4098873 713.043643,43.9021633 L720.162248,40.2229821 C720.737395,39.9256939 721.426393,39.9256939 722.00154,40.2228546 L728.956173,43.8168412 C729.938437,44.3244376 730.292555,45.5249414 729.736645,46.4633571 Z" id="Combined-Shape"></path>
        </g>
    </g>
</svg>