<?xml version="1.0" encoding="UTF-8"?>
<svg width="441px" height="194px" viewBox="0 0 441 194" version="1.1" xmlns="http://www.w3.org/2000/svg" xmlns:xlink="http://www.w3.org/1999/xlink">
    <!-- Generator: Sketch 58 (84663) - https://sketch.com -->
    <title>Trident</title>
    <desc>Created with Sketch.</desc>
    <g id="Page-1" stroke="none" stroke-width="1" fill="none" fill-rule="evenodd">
        <g id="v2" transform="translate(-202.000000, -116.000000)" fill-rule="nonzero" stroke="#FFFFFF" stroke-width="2">
            <path d="M307.12,119.92 C312.52,119.92 317.02,128.2 317.02,133.42 C317.02,135.58 316.3,137.2 314.32,137.38 C300.46,138.82 283.9,142.06 266.98,147.28 C272.2,147.82 277.42,149.62 277.42,151.78 C277.42,151.96 277.42,152.14 277.24,152.5 C263.2,176.08 240.7,219.1 228.1,257.62 C227.74,258.88 226.84,259.6 225.94,259.6 C222.34,259.6 216.22,251.86 216.22,246.28 C216.22,231.414556 235.973012,189.326474 253.640985,155.084155 L254.175718,154.048947 L255.82,150.88 C239.08,156.64 222.34,164.02 207.94,173.02 C207.4,173.38 207.04,173.56 206.5,173.56 C203.98,173.56 202,169.78 202,166.54 C202,164.92 202.54,163.66 203.62,162.76 C226.3,145.84 279.04,119.92 307.12,119.92 Z M469.3,127.84 C472.72,127.84 474.88,133.42 474.88,137.02 C474.88,146.74 441.4,204.16 424.48,226.84 C422.5,231.16 419.62,239.44 418.36,244.48 C431.233575,239.960554 442.544141,232.523491 451.895294,225.577894 C458.432241,216.328776 470.81425,209.74 481,209.74 C490.36,209.74 495.76,213.7 495.76,220.72 C495.76,231.722068 480.849997,238.996635 467.961418,242.050554 L467.571492,242.141804 L466.78,242.32 C468.4,245.02 471.82,245.92 475.6,245.92 C479.38,245.92 483.34,244.84 486.76,243.58 C499.451958,238.618598 512.365796,229.145611 520.47614,222.98356 C521.890557,220.413226 523.406217,217.761718 525.006893,215.061047 L525.698055,213.900701 L526.504358,212.561162 C527.997419,210.222872 530.95871,209.38 533.92,209.38 C539.14,209.38 544.72,212.08 544.72,215.14 C544.72,215.451538 544.72,215.763077 543.903421,217.474465 L543.80146,217.68664 L543.46,218.38 C541.776522,221.915304 536.471695,230.489007 533.43582,236.001944 L533.232414,236.372988 L532.84,237.1 C546.16,223.78 562.9,210.28 569.74,210.28 C573.16,210.28 577.12,213.88 577.12,217.48 C577.12,225.4 570.46,234.22 568.12,243.22 C581.265272,238.759997 594.793194,229.095967 603.114847,222.910692 C603.787859,221.482394 604.484583,220.029505 605.2,218.56 L592.24,218.56 C590.44,218.56 589.72,217.84 589.72,216.58 C589.72,213.7 593.86,208.66 596.2,208.66 L610.24,208.66 C613.66,202 617.44,195.34 620.86,189.22 C622.12,187.06 624.64,185.8 627.7,185.8 C630.94,185.8 637.24,187.24 637.24,190.3 C637.24,190.84 636.88,192.1 636.34,193.18 C634,198.4 631.3,203.44 628.78,208.66 L641.02,208.66 C642.46,208.66 643.18,209.38 643.18,210.64 C643.18,213.52 639.58,218.56 636.88,218.56 L623.92,218.56 L623.38255,219.68287 C618.926331,229.048994 615.065385,238.581538 614.2,244.12 L614.867654,243.870617 C618.690556,242.407778 623.12,240.16 624.82,240.16 C627.16,240.16 628.42,241.78 628.42,243.4 C628.42,246.64 627.52,248.08 625,249.52 L624.483182,249.812534 C619.527756,252.567479 608.683158,257.26 600.52,257.26 C596.02,257.26 593.5,254.74 593.5,249.34 C593.5,247.084804 594.585242,243.240503 596.414006,238.400611 C578.952774,249.808128 563.881449,257.26 554.26,257.26 C549.76,257.26 547.24,254.74 547.24,249.34 C547.24,244.12 552.1,234.76 553.9,229.9 C540.4,238.9 523.12,257.98 518.08,257.98 C515.02,257.98 508.72,254.74 508.72,251.68 C508.72,249.20695 509.968031,245.049059 512.178311,239.79088 C496.164138,250.409349 482.462069,257.26 468.76,257.26 C455.865705,257.26 447.651354,252.233392 447.348663,239.458734 C430.631419,250.193116 416.072825,257.26 406.84,257.26 C402.34,257.26 399.82,254.74 399.82,249.34 C399.82,247.9 400,246.28 400.54,244.48 C392.44,252.58 383.26,257.8 376.06,257.8 C367.96,257.8 363.46,254.38 363.46,246.64 C363.46,245.752278 363.540979,244.846625 363.695723,243.927926 C350.001204,252.154722 338.303747,257.26 330.34,257.26 C325.84,257.26 323.32,254.74 323.32,249.34 C323.32,246.595201 324.46467,242.805268 325.916593,239.069313 C312.149983,248.016537 295.38326,257.26 287.86,257.26 C283.36,257.26 280.84,254.74 280.84,249.34 C280.84,244.66 287.14,236.74 289.12,232.06 C286.6,230.98 284.26,230.44 282.46,229.72 C270.337169,242.013575 263.235226,248.962333 252.857846,255.789888 L252.298734,256.155564 L250.913885,257.046152 C249.956224,257.644796 249.275714,257.8 248.44,257.8 C245.74,257.8 244.12,254.92 244.12,252.22 C244.12,250.96 244.66,249.7 245.38,249.16 C256,241.24 265.36,233.32 274.18,224.86 C273.8425,224.635 273.575312,224.339687 273.334492,224.018008 L273.192812,223.822187 L272.92,223.42 C270.94,221.08 270.22,218.56 270.22,215.86 C270.22,209.2 275.8,202.54 283.54,202.54 C290.02,202.54 293.44,205.6 293.44,210.46 C293.44,211.9 293.08,213.52 292.54,215.14 C294.916,215.932 296.9048,216.724 298.790347,217.516 L299.30224,217.732 L300.82,218.38 C304.06,219.82 305.14,221.8 305.14,224.14 C305.14,230.44 296.86,238.9 296.86,244.3 C310.977293,238.817556 324.36403,229.577963 333.205699,222.85927 C334.756216,219.494244 336.447042,216.047377 338.08,213.7 C339.52,211.54 341.86,210.28 344.92,210.28 C348.34,210.28 354.46,211.72 354.46,215.32 C354.46,219.82 346.54,234.22 344.2,243.22 C354.013674,239.890361 364.040615,233.660283 371.955337,228.142577 C380.286505,218.069406 392.69678,209.74 399.46,209.74 C404.32,209.74 406.3,212.98 406.3,215.5 C406.3,224.380652 392.150009,231.239877 384.219936,232.81849 L383.955015,232.869697 L383.44,232.96 C382.36,234.22 381.64,236.74 381.64,239.08 C381.64,241.78 382.72,244.3 385.96,244.3 C390.82,244.3 403.06,236.02 407.38,229.18 C416.92,205.78 458.68,127.84 469.3,127.84 Z M478.3,218.74 C472.72,218.74 467.5,224.5 466.24,233.5 C477.04,231.34 481.36,225.76 481.36,221.98 C481.36,220.18 480.28,218.74 478.3,218.74 Z M362.02,170.86 C366.88,170.86 371.02,174.46 371.02,180.04 C371.02,188.14 362.38,197.14 354.82,197.14 C349.6,197.14 346,193.54 346,187.6 C346,181.3 353.2,170.86 362.02,170.86 Z" id="Trident" transform="translate(422.590000, 189.760000) rotate(-15.000000) translate(-422.590000, -189.760000) "></path>
        </g>
    </g>
</svg>